<?xml version="1.0" standalone="no"?><!DOCTYPE svg PUBLIC "-//W3C//DTD SVG 1.1//EN" "http://www.w3.org/Graphics/SVG/1.1/DTD/svg11.dtd"><svg class="icon" width="200px" height="200.00px" viewBox="0 0 1024 1024" version="1.1" xmlns="http://www.w3.org/2000/svg"><path fill="#00CCB4" d="M34.133333 170.666667h955.733334v68.266666H34.133333V170.666667z"  /><path fill="#00CCB4" d="M682.666667 0H341.333333C283.306667 0 238.933333 44.373333 238.933333 102.4v34.133333c0 58.026667 44.373333 102.4 102.4 102.4h341.333334c58.026667 0 102.4-44.373333 102.4-102.4V102.4c0-58.026667-44.373333-102.4-102.4-102.4z m-17.066667 170.666667h-307.2C331.093333 170.666667 307.2 146.773333 307.2 119.466667S331.093333 68.266667 358.4 68.266667h307.2c27.306667 0 51.2 23.893333 51.2 51.2S692.906667 170.666667 665.6 170.666667zM580.266667 307.2h68.266666v546.133333h-68.266666V307.2zM375.466667 307.2h68.266666v546.133333h-68.266666V307.2z"  /><path fill="#00CCB4" d="M819.2 307.2v494.933333c0 64.853333-54.613333 119.466667-119.466667 119.466667h-375.466666C259.413333 921.6 204.8 866.986667 204.8 802.133333V307.2H136.533333v546.133333c0 75.093333 61.44 136.533333 136.533334 136.533334h477.866666c75.093333 0 136.533333-61.44 136.533334-136.533334V307.2h-68.266667z"  /></svg>