<?xml version="1.0" standalone="no"?><!DOCTYPE svg PUBLIC "-//W3C//DTD SVG 1.1//EN" "http://www.w3.org/Graphics/SVG/1.1/DTD/svg11.dtd"><svg t="1502329780325" class="icon" style="" viewBox="0 0 1024 1024" version="1.1" xmlns="http://www.w3.org/2000/svg" p-id="7776" xmlns:xlink="http://www.w3.org/1999/xlink" width="200" height="200"><defs><style type="text/css"></style></defs><path d="M113.325 171.623v690.844h79.639s-91.153-313.758 11.514-690.844h-91.153z" fill="#ffffff" p-id="7777"></path><path d="M407.893 679.201h-178.948c-12.953 0-23.988-14.393-23.988-32.143s10.554-32.143 23.988-32.143h178.948c12.953 0 23.988 14.393 23.988 32.143-0.48 17.751-11.034 32.143-23.988 32.143z" fill="#ffffff" p-id="7778"></path><path d="M908.276 216.719c0-46.057-37.42-83.477-83.477-83.477h-125.215v-77.72c0-12.953-16.312-23.988-29.265-23.508-12.953 0-29.265 11.034-29.265 23.988v77.241h-330.069v-77.241c0-12.953-15.832-23.988-29.265-23.988-12.953 0-29.265 10.554-29.265 23.988v77.241h-124.735c-46.057 0-83.477 37.42-83.477 83.477v631.834c0 46.057 37.42 83.477 83.477 83.477h280.176c12.953 0 23.988-21.589 23.988-34.542s-10.554-34.542-23.988-34.542h-258.587c-19.67 0-35.501-15.832-35.981-35.981v-377.565h770.962c12.953 0 23.988-10.554 23.988-23.988 0-0.959 0-1.919-0.48-2.878 0-0.959 0.48-1.919 0.48-2.878v-202.935zM839.191 380.315h-725.866v-142.007c0-19.67 15.832-35.501 35.981-35.981h103.627v32.143c0 12.953 15.832 23.988 29.265 23.988 12.953 0 29.265-10.554 29.265-23.988v-32.143h330.069v32.623c0 12.953 16.312 23.988 29.265 23.508 12.953 0 29.265-11.034 29.265-23.988v-32.143h103.627c19.67 0 35.501 15.832 35.981 35.981v142.007h-0.48z" fill="#ffffff" p-id="7779"></path><path d="M729.328 491.139c-138.169 0-250.431 112.262-250.431 250.431s112.262 250.431 250.431 250.431 250.431-112.262 250.431-250.431-112.262-250.431-250.431-250.431zM729.328 932.031c-105.066 0-190.462-85.396-190.462-190.462s85.396-190.462 190.462-190.462 190.462 85.396 190.462 190.462-85.396 190.462-190.462 190.462z" fill="#ffffff" p-id="7780"></path><path d="M717.334 604.36c12.953 0 23.988 10.554 23.988 23.988v101.227h101.228c12.953 0 23.988 11.034 23.508 23.988 0 12.953-10.554 23.508-23.508 23.508h-125.215c-12.953 0-23.988-10.554-23.988-23.988v-125.215c0.48-12.953 11.034-23.508 23.988-23.508z" fill="#ffffff" p-id="7781"></path></svg>